<svg width="35" height="38" viewBox="0 0 35 38" fill="none" xmlns="http://www.w3.org/2000/svg">
<g clip-path="url(#clip0_455_2895)">
<path fill-rule="evenodd" clip-rule="evenodd" d="M13.4566 1.31619C15.9575 -0.121917 19.0387 -0.121917 21.5395 1.31619L30.9566 6.73146C33.4574 8.16957 34.998 10.8273 34.998 13.7035V24.5341C34.998 27.4103 33.4574 30.068 30.9566 31.5061L21.5395 36.9214C19.0387 38.3595 15.9575 38.3595 13.4566 36.9214L4.03949 31.5061C1.53864 30.068 -0.00195312 27.4103 -0.00195312 24.5341V13.7035C-0.00195312 10.8273 1.53864 8.16957 4.03949 6.73146L13.4566 1.31619Z" fill="url(#paint0_linear_455_2895)"/>
<path fill-rule="evenodd" clip-rule="evenodd" d="M15.5843 17.5134C16.6154 16.9135 17.887 16.9037 18.9272 17.4877L25.9404 21.4249C26.5136 21.7467 26.5136 22.5717 25.9404 22.8935L18.9272 26.8308C17.887 27.4148 16.6154 27.405 15.5843 26.805L8.85029 22.8871C8.29209 22.5623 8.29209 21.7561 8.85029 21.4313L15.5843 17.5134Z" fill="white"/>
<g opacity="0.900359">
<path fill-rule="evenodd" clip-rule="evenodd" d="M15.5843 17.4174C16.6154 16.8175 17.887 16.8077 18.9272 17.3917L25.9404 21.3289C26.5136 21.6507 26.5136 22.4757 25.9404 22.7975L18.9272 26.7348C17.887 27.3187 16.6154 27.309 15.5843 26.709L8.85029 22.7911C8.29209 22.4663 8.29209 21.6601 8.85029 21.3353L15.5843 17.4174Z" fill="url(#paint1_linear_455_2895)"/>
</g>
<path fill-rule="evenodd" clip-rule="evenodd" d="M15.5843 14.024C16.6154 13.4241 17.887 13.4143 18.9272 13.9983L25.9404 17.9355C26.5136 18.2573 26.5136 19.0824 25.9404 19.4041L18.9272 23.3414C17.887 23.9254 16.6154 23.9156 15.5843 23.3157L8.85029 19.3977C8.29209 19.073 8.29209 18.2667 8.85029 17.942L15.5843 14.024Z" fill="white"/>
<path fill-rule="evenodd" clip-rule="evenodd" d="M15.5843 13.9087C16.6154 13.3087 17.887 13.2989 18.9272 13.8829L25.9404 17.8202C26.5136 18.1419 26.5136 18.967 25.9404 19.2888L18.9272 23.226C17.887 23.81 16.6154 23.8002 15.5843 23.2003L8.85029 19.2824C8.29209 18.9576 8.29209 18.1514 8.85029 17.8266L15.5843 13.9087Z" fill="url(#paint2_linear_455_2895)"/>
<path fill-rule="evenodd" clip-rule="evenodd" d="M15.5843 10.3999C16.6154 9.79989 17.887 9.79019 18.9272 10.3741L25.9404 14.3114C26.5136 14.6332 26.5136 15.4582 25.9404 15.78L18.9272 19.7172C17.887 20.3012 16.6154 20.2914 15.5843 19.6915L8.85029 15.7736C8.29209 15.4488 8.29209 14.6426 8.85029 14.3178L15.5843 10.3999Z" fill="white"/>
</g>
<defs>
<linearGradient id="paint0_linear_455_2895" x1="19.7238" y1="-17.6758" x2="-13.6023" y2="18.2766" gradientUnits="userSpaceOnUse">
<stop stop-color="#32C5FF"/>
<stop offset="0.533966" stop-color="#B620E0"/>
<stop offset="1" stop-color="#FFAA12"/>
</linearGradient>
<linearGradient id="paint1_linear_455_2895" x1="19.1303" y1="11.1728" x2="7.17409" y2="17.5845" gradientUnits="userSpaceOnUse">
<stop stop-color="white" stop-opacity="0.475466"/>
<stop offset="1" stop-color="white" stop-opacity="0.272734"/>
</linearGradient>
<linearGradient id="paint2_linear_455_2895" x1="21.1488" y1="11.9334" x2="11.4511" y2="17.6045" gradientUnits="userSpaceOnUse">
<stop stop-color="white" stop-opacity="0.200771"/>
<stop offset="1" stop-color="white" stop-opacity="0.697855"/>
</linearGradient>
<clipPath id="clip0_455_2895">
<rect width="35" height="38" fill="white"/>
</clipPath>
</defs>
</svg>
