<svg width="45" height="33" viewBox="0 0 45 33" fill="none" xmlns="http://www.w3.org/2000/svg">
<path d="M30.175 3.60333H14.3041C12.5508 3.60333 11.1299 5.02428 11.1299 6.77753V21.8549C11.1299 23.0269 11.7722 24.0392 12.717 24.5887V27.4098C12.717 28.2862 13.4277 28.9969 14.3041 28.9969H30.175C31.0514 28.9969 31.7621 28.2862 31.7621 27.4098V24.5887C32.707 24.0387 33.3492 23.0269 33.3492 21.8549V6.77753C33.3492 5.02428 31.9258 3.60333 30.175 3.60333ZM29.3815 26.6162H15.0976V25.0291H29.3815V26.6162ZM30.9686 21.8549C30.9686 22.2925 30.6126 22.6485 30.175 22.6485H14.3041C13.8665 22.6485 13.5105 22.2925 13.5105 21.8549V6.77753C13.5105 6.33998 13.8665 5.98398 14.3041 5.98398H30.175C30.6126 5.98398 30.9686 6.33998 30.9686 6.77753V21.8549ZM27.7944 7.57107H16.6847C15.8083 7.57107 15.0976 8.2818 15.0976 9.15817V13.9195C15.0976 14.7958 15.8083 15.5066 16.6847 15.5066H27.7944C28.6708 15.5066 29.3369 14.7958 29.3369 13.9195L29.3815 9.15817C29.3815 8.2818 28.6723 7.57107 27.7944 7.57107ZM17.0815 18.6807C16.4219 18.6807 15.8912 19.2114 15.8912 19.8711C15.8912 20.5307 16.4219 21.0614 17.0815 21.0614C17.7411 21.0614 18.2718 20.5282 18.2718 19.8711C18.2718 19.2114 17.7411 18.6807 17.0815 18.6807ZM28.5879 18.6807H22.2396C21.8009 18.6807 21.446 19.0357 21.446 19.4743C21.446 19.9129 21.8009 20.2678 22.2396 20.2678H28.5879C29.0266 20.2678 29.3815 19.9129 29.3815 19.4743C29.3815 19.0357 29.0244 18.6807 28.5879 18.6807Z" />
</svg>
