<svg width="46" height="33" viewBox="0 0 46 33" fill="none" xmlns="http://www.w3.org/2000/svg">
<path d="M37.1492 7.68911C37.0202 7.15396 36.5391 6.77753 35.9886 6.77753H30.9892C31.0012 6.16005 30.9946 5.60208 30.9815 5.13984C30.9595 4.27934 30.2602 3.60333 29.3972 3.60333H16.7202C15.8573 3.60333 15.158 4.27934 15.1332 5.13984C15.0786 5.60208 15.1133 6.16005 15.1282 6.77753H10.1269C9.57633 6.77753 9.09906 7.15396 8.96887 7.68911C8.9286 7.85774 7.99568 11.8959 10.6134 15.7992C12.4703 18.5677 15.6028 20.5124 19.9128 21.6218C20.8403 21.8601 21.8679 22.7244 21.8679 23.6821C21.8679 23.6817 21.8679 23.6825 21.8679 23.6821L21.8684 26.6162H17.9007C17.2435 26.6162 16.755 27.1494 16.755 27.8066C16.755 28.4637 17.246 28.9969 17.9007 28.9969H28.1721C28.8293 28.9969 29.3178 28.4637 29.3178 27.8066C29.3178 27.1494 28.7847 26.6162 28.1721 26.6162H24.249V23.6781C24.2506 22.7214 25.2767 21.8589 26.2036 21.6208C30.5166 20.5129 33.6481 18.5682 35.503 15.7982C38.1213 11.8959 37.1888 7.85774 37.1492 7.68911ZM12.6141 14.5047C11.2284 12.4613 11.1064 10.3336 11.1743 9.15817H15.1614C15.4272 12.1151 16.1707 15.6603 18.0217 18.5369C15.5894 17.5698 13.7792 16.2207 12.6141 14.5047ZM23.0587 21.0614C20.2962 17.9715 17.489 15.0552 17.5039 5.98398H28.5689C28.6284 15.0503 25.8213 17.9666 23.0587 21.0614ZM33.5038 14.5047C32.3412 16.2207 30.531 17.5673 28.0977 18.5329C29.9477 15.6603 30.6917 12.1141 30.9545 9.15817H34.9416C34.9669 10.3336 34.8875 12.4663 33.5038 14.5047Z" />
</svg>
