<svg width="46" height="33" viewBox="0 0 46 33" fill="none" xmlns="http://www.w3.org/2000/svg">
<path d="M34.4487 26.6161H11.4366C10.782 26.6161 10.2463 27.1517 10.2463 27.8064C10.2463 28.461 10.782 28.9966 11.4366 28.9966H34.4487C35.1033 28.9966 35.639 28.461 35.639 27.8064C35.639 27.1517 35.1033 26.6161 34.4487 26.6161ZM32.8616 25.029C33.5163 25.029 34.0519 24.4934 34.0519 23.8388C34.0519 23.1841 33.5163 22.6485 32.8616 22.6485H13.0237C12.369 22.6485 11.8334 23.1841 11.8334 23.8388C11.8334 24.4934 12.369 25.029 13.0237 25.029H32.8616ZM34.905 8.45489L23.3989 3.69377C23.1076 3.57286 22.7805 3.57286 22.4894 3.69377L10.9833 8.45489C10.5362 8.6379 10.2463 9.07433 10.2463 9.5554V12.7295C10.2463 13.3891 10.7795 13.9198 11.4366 13.9198H13.4204V21.0614H15.801V13.9198H18.9751V21.0614H21.3556V13.9198H24.5297V21.0614H26.9102V13.9198H30.0843V21.0614H32.4649V13.9198H34.4487C35.1083 13.9198 35.639 13.3891 35.639 12.7295V9.5554C35.639 9.07433 35.3513 8.6379 34.905 8.45489ZM33.2584 11.5392H25.1794C25.2637 11.2466 25.3232 11.0234 25.3232 10.7457C25.3232 9.43141 24.2569 8.36512 22.9427 8.36512C21.6284 8.36512 20.5621 9.43141 20.5621 10.7457C20.5621 11.0254 20.6191 11.2897 20.7078 11.5392H12.6269V10.3489L22.9427 6.08227L33.2584 10.3504V11.5392Z" />
</svg>
