<svg width="45" height="33" viewBox="0 0 45 33" fill="none" xmlns="http://www.w3.org/2000/svg">
<path d="M33.123 16.2951L34.3039 15.1405C34.9055 14.5746 35.1471 13.7245 34.9333 12.9211C34.7194 12.1151 34.0872 11.4962 33.3041 11.3102L31.6718 10.894L32.1353 9.27815C32.3538 8.49303 32.1291 7.64394 31.5461 7.06167C30.9633 6.47891 30.1107 6.25473 29.3236 6.47593L27.7162 6.9355L27.307 5.31715C27.1565 4.52137 26.5366 3.89541 25.7331 3.6815C24.9257 3.46605 24.0776 3.70475 23.5261 4.28906L22.3576 5.49327L21.2 4.30067C20.6346 3.7063 19.7914 3.46992 18.9384 3.67997C18.1746 3.89308 17.5546 4.5184 17.3612 5.305L16.9545 6.93376L15.3376 6.47301C14.558 6.25428 13.7039 6.47896 13.1226 7.06023C12.5399 7.642 12.3152 8.49159 12.5369 9.28365L12.9973 10.8926L11.3833 11.3057C10.5838 11.4942 9.95436 12.1092 9.73891 12.9126C9.52346 13.7161 9.76216 14.5682 10.348 15.1212L11.5462 16.2932L10.3621 17.4508C9.76048 18.0201 9.52043 18.8737 9.73767 19.6781C9.95312 20.4811 10.5853 21.0971 11.3649 21.2831L12.9972 21.6985L12.5334 23.318C12.3149 24.0992 12.5381 24.9453 13.1162 25.5266C13.6945 26.1094 14.5471 26.339 15.3451 26.1188L16.9525 25.66L17.3617 27.2798C17.557 28.0813 18.1741 28.7102 18.9721 28.921C19.1665 28.9721 19.3649 28.9969 19.5633 28.9969C20.1753 28.9969 20.766 28.752 21.1861 28.307L22.3581 27.1087L23.5067 28.2837C24.0677 28.8897 24.9217 29.1283 25.7247 28.9205C26.5351 28.7082 27.1585 28.0788 27.3505 27.2868L27.7612 25.658L29.3811 26.1215C30.1652 26.3338 31.0177 26.1091 31.5975 25.5248C32.1758 24.9435 32.399 24.0974 32.1773 23.3098L31.717 21.6994L33.3289 21.2887C34.1269 21.0996 34.7563 20.4852 34.9735 19.6847C35.1907 18.8842 34.9531 17.9914 34.358 17.4607L33.123 16.2951ZM28.7486 20L29.8303 23.7758L26.0515 22.6956L25.0889 26.5022L22.3531 23.7059L19.6173 26.5022L18.6557 22.6931L14.8769 23.7733L15.9586 19.9975L12.1555 19.0279L14.9503 16.2932L12.1585 13.5624L15.9606 12.5923L14.8764 8.81596L18.6557 9.89717L19.6183 6.09161L22.3541 8.91069L25.0898 6.09161L26.0525 9.89717L29.8313 8.81546L28.7496 12.5913L32.5517 13.5614L29.7604 16.2922L32.5551 19.0269L28.7486 20Z" />
</svg>
