<svg width="45" height="33" viewBox="0 0 45 33" fill="none" xmlns="http://www.w3.org/2000/svg">
<path d="M25.1603 13.1259H23.1765C22.8491 13.1259 22.5813 13.3937 22.5813 13.7211V15.7049C22.5813 16.0323 22.8491 16.3001 23.1765 16.3001H25.1603C25.4877 16.3001 25.7555 16.0323 25.7555 15.7049V13.7211C25.7555 13.3937 25.4877 13.1259 25.1603 13.1259ZM25.1603 17.8872H23.1765C22.8491 17.8872 22.5813 18.155 22.5813 18.4824V20.4662C22.5813 20.7936 22.8491 21.0614 23.1765 21.0614H25.1603C25.4877 21.0614 25.7555 20.7936 25.7555 20.4662V18.4824C25.7555 18.155 25.4877 17.8872 25.1603 17.8872ZM17.2248 14.713H15.241C14.9136 14.713 14.6458 14.9808 14.6458 15.3082V17.292C14.6458 17.6194 14.9136 17.8872 15.241 17.8872H17.2248C17.5522 17.8872 17.82 17.6194 17.82 17.292V15.3082C17.82 14.9808 17.5522 14.713 17.2248 14.713ZM25.1603 8.36462H23.1765C22.8491 8.36462 22.5813 8.63244 22.5813 8.95978V10.9437C22.5813 11.271 22.8491 11.5388 23.1765 11.5388H25.1603C25.4877 11.5388 25.7555 11.271 25.7555 10.9437V8.95978C25.7555 8.63244 25.4877 8.36462 25.1603 8.36462ZM17.2248 19.4743H15.241C14.9136 19.4743 14.6458 19.7421 14.6458 20.0695V22.0533C14.6458 22.3807 14.9136 22.6485 15.241 22.6485H17.2248C17.5522 22.6485 17.82 22.3807 17.82 22.0533V20.0695C17.82 19.7421 17.5522 19.4743 17.2248 19.4743ZM29.9216 8.36462H27.9377C27.6104 8.36462 27.3426 8.63244 27.3426 8.95978V10.9437C27.3426 11.271 27.6104 11.5388 27.9377 11.5388H29.9216C30.249 11.5388 30.5168 11.271 30.5168 10.9437V8.95978C30.5168 8.63244 30.249 8.36462 29.9216 8.36462ZM32.1039 3.60333H20.9942C19.2434 3.60333 17.82 5.02428 17.82 6.77753V9.95172H13.0587C11.3055 9.95172 9.88452 11.3751 9.88452 13.1259V27.8066C9.88452 28.4662 10.4177 28.9969 11.0748 28.9969C11.732 28.9969 12.2652 28.4637 12.2652 27.8066V13.1259C12.2652 12.6876 12.6205 12.3324 13.0587 12.3324H20.2006V6.77753C20.2006 6.33919 20.556 5.98398 20.9942 5.98398H32.1039C32.5421 5.98398 32.8974 6.33919 32.8974 6.77753V27.8066C32.8974 28.4637 33.4306 28.9969 34.0877 28.9969C34.7449 28.9969 35.2781 28.4662 35.2781 27.8066V6.77753C35.2781 5.02428 33.8546 3.60333 32.1039 3.60333ZM29.9216 13.1259H27.9377C27.6104 13.1259 27.3426 13.3937 27.3426 13.7211V15.7049C27.3426 16.0323 27.6104 16.3001 27.9377 16.3001H29.9216C30.249 16.3001 30.5168 16.0323 30.5168 15.7049V13.7211C30.5168 13.3937 30.249 13.1259 29.9216 13.1259ZM29.9216 17.8872H27.9377C27.6104 17.8872 27.3426 18.155 27.3426 18.4824V20.4662C27.3426 20.7936 27.6104 21.0614 27.9377 21.0614H29.9216C30.249 21.0614 30.5168 20.7936 30.5168 20.4662V18.4824C30.5168 18.155 30.249 17.8872 29.9216 17.8872Z" />
</svg>
