<svg width="45" height="33" viewBox="0 0 45 33" fill="none" xmlns="http://www.w3.org/2000/svg">
<path d="M27.2688 15.3724C28.0871 14.4598 28.5881 13.2546 28.5881 11.9353C28.5881 9.36276 26.6895 7.2425 24.2236 6.85664V4.79341C24.2236 4.13625 23.6929 3.60309 23.0332 3.60309C22.3736 3.60309 21.8429 4.13625 21.8429 4.79341V6.77728H19.4623V4.79341C19.4623 4.13625 18.9291 3.60309 18.2719 3.60309C17.6148 3.60309 17.0816 4.13625 17.0816 4.79341V6.77728H15.4945C14.8374 6.77728 14.3042 7.31045 14.3042 7.9676V24.6321C14.3042 25.2536 14.7816 25.7699 15.4013 25.8195C15.7673 25.8472 16.3516 25.8572 17.0816 25.8621V27.8063C17.0816 28.4659 17.6148 28.9966 18.2719 28.9966C18.9291 28.9966 19.4623 28.4635 19.4623 27.8063V25.8418L21.8429 25.8054V27.8063C21.8429 28.4635 22.3761 28.9966 23.0332 28.9966C23.6904 28.9966 24.2236 28.4635 24.2236 27.8063V25.7714C24.3814 25.7694 24.5461 25.7669 24.7009 25.7653C27.7201 25.7332 30.1752 23.2533 30.1752 20.2378C30.1752 18.1399 28.9997 16.3098 27.2688 15.3724ZM16.6848 9.15793H23.43C24.9616 9.15793 26.2074 10.4038 26.2074 11.9353C26.2074 13.4669 24.9625 14.7128 23.43 14.7128H16.6848V9.15793ZM24.6749 23.3823C23.6532 23.3972 17.8876 23.4815 16.6848 23.4815V17.0934H24.6501C26.381 17.0934 27.7945 18.5069 27.7945 20.2378C27.7945 21.9539 26.3959 23.3674 24.6749 23.3823Z" />
</svg>
