<svg width="46" height="33" viewBox="0 0 46 33" fill="none" xmlns="http://www.w3.org/2000/svg">
<path d="M18.4827 16.7708C20.4864 16.7708 22.1104 15.1469 22.1104 13.1432C22.1104 11.1394 20.4864 9.51551 18.4827 9.51551C16.479 9.51551 14.8551 11.1394 14.8551 13.1432C14.8551 15.144 16.4819 16.7708 18.4827 16.7708ZM32.9933 15.4104H27.5519C26.8008 15.4104 26.1915 16.0198 26.1915 16.7708C26.1915 17.5218 26.8008 18.1312 27.5519 18.1312H32.9933C33.7444 18.1312 34.3537 17.5218 34.3537 16.7708C34.3537 16.0198 33.7472 15.4104 32.9933 15.4104ZM20.2966 18.5846H16.6689C14.1636 18.5846 12.1343 20.6138 12.1343 23.1192C12.1343 23.618 12.5425 24.0261 13.0413 24.0261H23.9242C24.425 24.0261 24.8311 23.62 24.8311 23.1192C24.8311 20.6138 22.8019 18.5846 20.2966 18.5846ZM32.9933 10.8759H27.5519C26.8008 10.8759 26.1915 11.4852 26.1915 12.2362C26.1915 12.9873 26.8008 13.5966 27.5519 13.5966H32.9933C33.7444 13.5966 34.3537 12.9873 34.3537 12.2362C34.3537 11.4852 33.7472 10.8759 32.9933 10.8759ZM35.7141 4.07404H10.3205C8.31681 4.07404 6.69287 5.69798 6.69287 7.70168V25.8399C6.69287 27.8436 8.31681 29.4676 10.3205 29.4676H35.7141C37.7178 29.4676 39.3417 27.8436 39.3417 25.8399V7.70168C39.3417 5.69798 37.7149 4.07404 35.7141 4.07404ZM36.621 25.8399C36.621 26.34 36.2141 26.7468 35.7141 26.7468H10.3205C9.82047 26.7468 9.41361 26.34 9.41361 25.8399V7.70168C9.41361 7.20164 9.82047 6.79477 10.3205 6.79477H35.7141C36.2141 6.79477 36.621 7.20164 36.621 7.70168V25.8399Z" />
</svg>
