<svg width="45" height="33" viewBox="0 0 45 33" fill="none" xmlns="http://www.w3.org/2000/svg">
<path d="M9.66853 14.713C10.3257 14.713 10.8589 14.1823 10.8589 13.5227V6.38075C10.8589 6.16253 11.0374 5.98398 11.2556 5.98398H34.2685C34.4868 5.98398 34.6653 6.16253 34.6653 6.38075V13.5227C34.6653 14.1823 35.196 14.713 35.8556 14.713C36.5153 14.713 37.0459 14.1823 37.0459 13.5227V6.38075C37.0459 4.84672 35.8011 3.60333 34.2685 3.60333H11.2556C9.7216 3.60333 8.47821 4.84672 8.47821 6.38075V13.5227C8.47821 14.1823 9.01137 14.713 9.66853 14.713ZM33.8718 16.3001C32.1259 16.31 30.7075 17.7235 30.7075 19.4743C30.7075 21.2251 32.1259 22.6386 33.8718 22.6039C35.6176 22.6386 37.036 21.2251 37.036 19.4743C37.036 17.7235 35.6176 16.31 33.8718 16.3001ZM33.8817 20.2232C33.4452 20.2629 33.0931 19.9107 33.0931 19.4743C33.0931 19.042 33.4423 18.6882 33.8732 18.6822C34.3032 18.6907 34.6504 19.0428 34.6504 19.4743C34.6504 19.9107 34.2983 20.2629 33.8817 20.2232ZM23.9425 24.2356H21.5866C19.6077 24.2356 18.0008 25.8971 18.0008 27.9405C18.0008 28.5207 18.462 28.9969 19.0324 28.9969H26.4868C27.0621 28.9969 27.5234 28.5207 27.5234 27.9405C27.5234 25.8971 25.9164 24.2356 23.9425 24.2356ZM35.0522 24.2356H32.6963C30.7174 24.2356 29.1105 25.8971 29.1105 27.9405C29.1105 28.5207 29.5717 28.9969 30.1421 28.9969H37.5965C38.1718 28.9969 38.633 28.5207 38.633 27.9405C38.633 25.8971 37.0261 24.2356 35.0522 24.2356ZM19.5978 19.4743C19.5978 21.2231 21.0148 22.6411 22.7616 22.6475C24.5079 22.6386 25.9264 21.2251 25.9264 19.4743C25.9264 17.7235 24.5079 16.31 22.7621 16.3001C21.0163 16.31 19.5978 17.7235 19.5978 19.4743ZM23.5407 19.4743C23.5407 19.9095 23.1867 20.2649 22.7695 20.2669C22.3355 20.2629 21.9834 19.9107 21.9834 19.4743C21.9834 19.042 22.3326 18.6882 22.7636 18.6822C23.1936 18.6907 23.5407 19.0428 23.5407 19.4743ZM12.8328 24.2356H10.477C8.49904 24.2356 6.89111 25.8971 6.89111 27.9405C6.89111 28.5207 7.35435 28.9969 7.92421 28.9969H15.3786C15.9524 28.9969 16.4137 28.5207 16.4137 27.9405C16.4137 25.8971 14.8068 24.2356 12.8328 24.2356ZM8.48863 19.4743C8.48863 21.2231 9.9056 22.6411 11.6524 22.6475C13.3982 22.6386 14.8167 21.2251 14.8167 19.4743C14.8167 17.7235 13.3982 16.31 11.6524 16.3001C9.9056 16.31 8.48863 17.7235 8.48863 19.4743ZM12.4311 19.4743C12.4311 19.9095 12.077 20.2649 11.6598 20.2669C11.2264 20.2629 10.8722 19.9107 10.8722 19.4743C10.8722 19.042 11.2215 18.6882 11.6524 18.6822C12.0839 18.6907 12.4311 19.0428 12.4311 19.4743Z" />
</svg>
