<svg width="45" height="33" viewBox="0 0 45 33" fill="none" xmlns="http://www.w3.org/2000/svg">
<path d="M30.6975 3.60309H14.8265C13.0733 3.60309 11.6523 5.02404 11.6523 6.77728V25.8224C11.6523 27.5752 13.0733 28.9966 14.8265 28.9966H30.6975C32.4433 28.9966 33.8717 27.5682 33.8717 25.8224V6.77728C33.8717 5.03148 32.4433 3.60309 30.6975 3.60309ZM31.491 25.8224C31.491 26.2607 31.1357 26.616 30.6975 26.616H14.8265C14.3883 26.616 14.033 26.2607 14.033 25.8224V6.77728C14.033 6.33904 14.3883 5.98373 14.8265 5.98373H30.6975C31.1357 5.98373 31.491 6.33904 31.491 6.77728V25.8224ZM28.3169 22.6482H17.2072C16.7757 22.6482 16.4136 23.0103 16.4136 23.4418C16.4136 23.8733 16.7757 24.2353 17.2072 24.2353H28.3169C28.7508 24.2353 29.1104 23.8758 29.1104 23.4418C29.1104 23.0078 28.7533 22.6482 28.3169 22.6482ZM22.762 19.8708C26.0478 19.8708 28.7136 17.205 28.7136 13.9192C28.7136 10.6334 26.0503 7.9676 22.762 7.9676C19.4738 7.9676 16.8104 10.6359 16.8104 13.9192C16.8104 17.2025 19.4787 19.8708 22.762 19.8708ZM27.0472 13.1257H25.3296C25.2614 11.9542 25.0444 10.8938 24.7221 10.0383C25.9164 10.6458 26.7992 11.7667 27.0472 13.1257ZM25.3311 14.7128H27.0487C26.8007 16.0707 25.9139 17.1926 24.7236 17.8002C24.9988 16.9446 25.2617 15.8832 25.3311 14.7128ZM22.762 9.66877C23.1042 10.0804 23.63 11.2707 23.754 13.1257H21.7701C21.8941 11.2707 22.4198 10.0804 22.762 9.66877ZM23.754 14.7128C23.63 16.5677 23.1042 17.758 22.762 18.1746C22.4198 17.758 21.8941 16.5677 21.7701 14.7128H23.754ZM20.8029 10.0407C20.4359 10.8938 20.2623 11.9552 20.1979 13.1257H18.4769C18.7248 11.7667 19.6077 10.6458 20.8029 10.0407ZM20.1979 14.7128C20.2623 15.8832 20.4359 16.9446 20.8029 17.8026C19.6126 17.1926 18.7248 16.0717 18.4769 14.7128H20.1979Z" />
</svg>
