<svg width="45" height="32" viewBox="0 0 45 32" xmlns="http://www.w3.org/2000/svg">
<g clip-path="">
<path d="M35.5833 18.1834L28.982 9.28083C27.1469 6.82133 23.6652 6.31544 21.2101 8.15052C20.2232 8.84934 19.5734 9.79168 19.2263 10.8233L19.2213 10.3918C19.2213 7.32523 16.7365 4.84192 13.6268 4.84192C10.5171 4.84192 8.11649 7.32573 8.11649 10.3521L8.11646 21.5064C8.11646 24.5755 10.6027 27.0613 13.6713 27.0613C16.7398 27.0613 19.2261 24.575 19.2261 21.5064L19.2263 14.3149C19.4092 14.8758 19.6602 15.4229 20.0327 15.9218L26.634 24.8245C28.4691 27.284 31.9508 27.7898 34.4059 25.9548C36.9125 24.1202 37.4184 20.6434 35.5833 18.1834ZM16.8456 15.9516H10.4972V10.3968C10.4972 6.19343 16.8456 6.19343 16.8456 10.3968V15.9516ZM25.2622 18.9522L21.9392 14.4984C19.4256 11.1298 24.5138 7.33168 27.0278 10.7018L30.3508 15.1531L25.2622 18.9522Z" />
</g>
<defs>
<clipPath id="clip0_134_1407">
<rect width="28.5677" height="25.3935" transform="translate(8.11694 3.25476)"/>
</clipPath>
</defs>
</svg>
