<svg width="46" height="33" viewBox="0 0 46 33" fill="none" xmlns="http://www.w3.org/2000/svg">
<path d="M34.2847 3.60333H12.0653C10.3121 3.60333 8.89111 5.02428 8.89111 6.77753V21.0614C8.89111 22.8146 10.3121 24.2356 12.0653 24.2356H19.4205L18.9444 26.6162H16.4298C15.7751 26.6162 15.2395 27.1519 15.2395 27.8066C15.2395 28.4612 15.7751 28.9969 16.4298 28.9969H29.9201C30.5773 28.9969 31.1105 28.4637 31.1105 27.8066C31.1105 27.1494 30.5773 26.6162 29.9201 26.6162H27.4041L26.9295 24.2356H34.2847C36.0379 24.2356 37.4588 22.8146 37.4588 21.0614V6.77753C37.4588 5.02428 36.0354 3.60333 34.2847 3.60333ZM21.3746 26.6162L21.8507 24.2356H24.5022L24.9783 26.6162H21.3746ZM35.0782 21.0614C35.0782 21.4989 34.7222 21.8549 34.2847 21.8549H12.0653C11.6278 21.8549 11.2718 21.4989 11.2718 21.0614V6.77753C11.2718 6.33998 11.6278 5.98398 12.0653 5.98398H34.2847C34.7222 5.98398 35.0782 6.33998 35.0782 6.77753V21.0614ZM26.8501 10.4427C26.4627 10.0553 25.8349 10.0553 25.4475 10.4427C25.0602 10.8302 25.0601 11.4595 25.4475 11.8468L27.1269 13.5252L25.4475 15.2035C25.0601 15.591 25.0601 16.2203 25.4475 16.6076C25.6449 16.801 25.8978 16.8953 26.1508 16.8953C26.4037 16.8953 26.6582 16.7991 26.8521 16.6054L29.2327 14.2248C29.6202 13.8373 29.6202 13.208 29.2327 12.8207L26.8501 10.4427ZM20.8985 10.4427C20.511 10.0553 19.8832 10.0553 19.4959 10.4427L17.1152 12.8234C16.7278 13.2108 16.7278 13.8401 17.1152 14.2275L19.4959 16.6081C19.6933 16.801 19.9462 16.8953 20.1992 16.8953C20.4521 16.8953 20.7051 16.801 20.8985 16.6076C21.2859 16.2202 21.2859 15.5909 20.8985 15.2035L19.2221 13.5227L20.8985 11.8463C21.2457 11.4595 21.2457 10.8296 20.8985 10.4427Z" />
</svg>
