<svg width="46" height="32" viewBox="0 0 46 32" fill="none" xmlns="http://www.w3.org/2000/svg">
<g clip-path="url(#clip0_134_1401)">
<path d="M33.3102 7.27542H29.8715V5.58252C29.8715 3.71239 28.3322 2.19672 26.4328 2.19672H19.5554C17.6587 2.19672 16.1167 3.71239 16.1167 5.58252V7.27542H12.678C10.7786 7.27542 9.23926 8.79375 9.23926 10.6612V24.2045C9.23926 26.0746 10.7786 27.5903 12.678 27.5903H33.3102C35.2096 27.5903 36.7489 26.0746 36.7489 24.2045V10.6612C36.7489 8.79375 35.2069 7.27542 33.3102 7.27542ZM18.6957 5.58252C18.6957 5.11496 19.0806 4.73607 19.5554 4.73607H26.4328C26.9076 4.73607 27.2925 5.11496 27.2925 5.58252V7.27542H18.6957V5.58252ZM34.1699 24.2045C34.1699 24.6699 33.7831 25.0509 33.3102 25.0509H12.678C12.2051 25.0509 11.8183 24.6699 11.8183 24.2045V10.6612C11.8183 10.1956 12.2051 9.81478 12.678 9.81478H33.3102C33.7831 9.81478 34.1699 10.1956 34.1699 10.6612V24.2045ZM27.2925 15.7399H24.7134V13.2006C24.7134 12.735 24.3266 12.3541 23.8538 12.3541H22.1344C21.6616 12.3541 21.2747 12.735 21.2747 13.2006V15.7399H18.6957C18.2229 15.7399 17.836 16.1208 17.836 16.5864V18.2793C17.836 18.7448 18.2229 19.1257 18.6957 19.1257H21.2747V21.6651C21.2747 22.1306 21.6616 22.5116 22.1344 22.5116H23.8538C24.3285 22.5116 24.7134 22.1326 24.7134 21.6651V19.1257H27.2925C27.7672 19.1257 28.1522 18.7467 28.1522 18.2793V16.5864C28.1522 16.1208 27.7653 15.7399 27.2925 15.7399Z" />
</g>
<defs>
<clipPath id="clip0_134_1401">
<rect width="27.5097" height="27.5097" fill="white" transform="translate(9.23926 2.19672)"/>
</clipPath>
</defs>
</svg>
