<svg width="46" height="33" viewBox="0 0 46 33" fill="none" xmlns="http://www.w3.org/2000/svg">
<path d="M22.8731 19.4743C25.7204 19.4743 27.9865 17.1651 27.9865 14.3162C27.9865 11.4674 25.6783 9.15817 22.8731 9.15817C20.0257 9.15817 17.7597 11.4674 17.7597 14.3162C17.715 17.1631 20.0262 19.4743 22.8731 19.4743ZM25.3529 21.0614H20.4032C16.5098 21.0614 13.3555 24.0223 13.3555 27.6726C13.3555 28.4067 13.9853 28.9969 14.764 28.9969H30.9921C31.7707 28.9969 32.4006 28.4067 32.4006 27.6726C32.4006 24.0223 29.2463 21.0614 25.3529 21.0614ZM32.4006 11.5388C34.5918 11.5388 36.3684 9.76226 36.3684 7.57107C36.3684 5.37989 34.5928 3.60333 32.4006 3.60333C30.2094 3.60333 28.4329 5.37989 28.4329 7.57107C28.4329 9.76226 30.2084 11.5388 32.4006 11.5388ZM16.1279 14.3162C16.1279 14.046 16.1766 13.789 16.2077 13.5271C15.6667 13.2301 15.0715 13.1259 14.4416 13.1259H11.3756C8.96318 13.1259 7.00708 15.1991 7.00708 17.7533C7.00708 18.2641 7.39825 18.6807 7.88098 18.6807H17.7755C16.7628 17.5003 16.1279 15.9876 16.1279 14.3162ZM13.3555 11.5388C15.5467 11.5388 17.3232 9.76226 17.3232 7.57107C17.3232 5.37989 15.5476 3.60333 13.3555 3.60333C11.1643 3.60333 9.38772 5.37989 9.38772 7.57107C9.38772 9.76226 11.1643 11.5388 13.3555 11.5388ZM34.3795 13.1259H31.3125C30.6776 13.1259 30.0785 13.2765 29.5339 13.5346C29.5637 13.7955 29.6133 14.0484 29.6133 14.3162C29.6133 15.9881 28.9794 17.5008 27.9687 18.6807H37.8731C38.3572 18.6807 38.749 18.2641 38.749 17.7533C38.749 15.1991 36.7949 13.1259 34.3795 13.1259Z" />
</svg>
