<svg width="46" height="33" viewBox="0 0 46 33" fill="none" xmlns="http://www.w3.org/2000/svg">
<path d="M24.5298 21.0616H21.3557C20.4794 21.0616 19.7687 21.7723 19.7687 22.6487V27.4098C19.7687 28.2862 20.4794 28.9969 21.3557 28.9969H24.5298C25.4062 28.9969 26.1169 28.2862 26.1169 27.4098V22.6933C26.1169 21.7708 25.4077 21.0616 24.5298 21.0616ZM10.1115 13.6471L7.73089 14.8374C7.32644 15.0407 7.07227 15.4524 7.07227 15.9037V27.8066C7.07227 28.4662 7.60542 28.9969 8.26255 28.9969C8.91969 28.9969 9.45284 28.4637 9.45284 27.8066V16.6377L11.1748 15.7757C11.764 15.4813 12.0025 14.767 11.7079 14.1793C11.4133 13.5926 10.6992 13.3545 10.1115 13.6471ZM22.9428 9.1141C20.7541 9.1141 18.9751 10.8936 18.9751 13.0817C18.9751 15.2704 20.7546 17.0499 22.9428 17.0499C25.1309 17.0499 26.9104 15.2704 26.9104 13.0817C26.9104 10.9392 25.1299 9.1141 22.9428 9.1141ZM25.3234 13.0817C25.3234 13.5181 24.9663 13.8753 24.5298 13.8753H22.9874C22.5063 13.8753 22.1493 13.5628 22.1493 13.0817V11.4947C22.1493 11.0582 22.5063 10.7012 22.9428 10.7012C23.3793 10.7012 23.7363 11.0587 23.7363 11.4952V12.2887L24.5298 12.2882C24.9663 12.2882 25.3234 12.6899 25.3234 13.0817ZM38.1537 14.8374L35.7731 13.6471C35.1859 13.3526 34.4712 13.5913 34.1766 14.1803C33.8821 14.7675 34.1208 15.4821 34.7098 15.7767L36.4327 16.6377V27.8066C36.4327 28.4637 36.9659 28.9969 37.623 28.9969C38.2801 28.9969 38.8133 28.4662 38.8133 27.8066V15.9037C38.8133 15.4524 38.5604 15.0407 38.1537 14.8374ZM31.7608 9.1141L23.8256 3.82724C23.5578 3.69219 23.2503 3.60333 22.9428 3.60333C22.6353 3.60333 22.3278 3.69219 22.0649 3.86984L14.1297 9.1567C13.6883 9.41167 13.4205 9.90763 13.4205 10.478V27.8066C13.4205 28.4662 13.9511 28.9969 14.6108 28.9969C15.2704 28.9969 15.801 28.4637 15.801 27.8066V10.9045L22.9428 6.14334L30.0845 10.903V27.8066C30.0845 28.4637 30.6177 28.9969 31.2748 28.9969C31.9319 28.9969 32.4651 28.4662 32.4651 27.8066V10.478C32.4651 9.90763 32.1973 9.41167 31.7608 9.1141Z" />
</svg>
