<svg width="45" height="32" viewBox="0 0 45 32" fill="none" xmlns="http://www.w3.org/2000/svg">
<path d="M35.0059 6.77767L31.8317 3.60349C31.3667 3.13852 30.6136 3.13852 30.1484 3.60349C29.6832 4.06846 29.6834 4.82158 30.1484 5.2868L30.939 6.03223L29.0493 7.91988L26.32 5.19058C25.8551 4.72561 25.1019 4.72561 24.6367 5.19058C24.2168 5.61051 24.1966 6.25542 24.5352 6.72113L13.5271 17.7271C13.3039 17.9503 13.1784 18.2528 13.1784 18.5703V23.7928L10.3529 26.6183C9.88791 27.0833 9.88791 27.8364 10.3529 28.3016C10.5855 28.5342 10.89 28.6483 11.1945 28.6483C11.4991 28.6483 11.8036 28.532 12.0362 28.2996L14.8617 25.4741H20.0842C20.3996 25.4741 20.7027 25.3486 20.9259 25.1254L31.9314 14.1596C32.1392 14.2702 32.3773 14.3645 32.6203 14.3645C32.9249 14.3645 33.2293 14.2482 33.4619 14.0158C33.9269 13.5508 33.9269 12.7977 33.4619 12.3324L30.7306 9.60319L32.6203 7.71554L33.3657 8.46098C33.5973 8.69557 33.9048 8.80965 34.2074 8.80965C34.5099 8.80965 34.8164 8.69339 35.049 8.46093C35.5118 7.99577 35.5118 7.24289 35.0059 6.77767ZM19.5912 23.0935H15.559V19.0662L16.9507 17.6746L18.1718 18.8956C18.3265 19.0464 18.5299 19.1257 18.7332 19.1257C18.9366 19.1257 19.1393 19.0483 19.2942 18.8932C19.6041 18.5833 19.6041 18.0808 19.2942 17.7714L18.0736 16.5517L20.1259 14.4994L21.347 15.7204C21.5007 15.8722 21.7041 15.9516 21.9074 15.9516C22.1108 15.9516 22.3135 15.8741 22.4683 15.7191C22.7783 15.4091 22.7783 14.9067 22.4683 14.5972L21.2478 13.3775L23.3001 11.3252L24.5212 12.5463C24.6749 12.698 24.8782 12.7774 25.0816 12.7774C25.2849 12.7774 25.4877 12.6999 25.6425 12.5449C25.9525 12.2349 25.9525 11.7325 25.6425 11.423L24.4215 10.2019L26.1931 8.43033L30.2228 12.4601L19.5912 23.0935Z" />
</svg>
